<?xml version="1.0" encoding="UTF-8"?>
<svg id="Capa_1" data-name="Capa 1" xmlns="http://www.w3.org/2000/svg" viewBox="0 0 14 13">
  <defs>
    <style>
      .cls-1 {
        fill: #f51f9c;
        stroke-width: 0px;
      }
    </style>
  </defs>
  <path class="cls-1" d="M1.5,13c-.83,0-1.5-.67-1.5-1.5V1.5C0,.67.67,0,1.5,0h8c.28,0,.5.22.5.5s-.22.5-.5.5H1.5c-.28,0-.5.22-.5.5v10c0,.28.22.5.5.5h10c.28,0,.5-.22.5-.5v-5c0-.28.22-.5.5-.5s.5.22.5.5v5c0,.83-.67,1.5-1.5,1.5H1.5Z"/>
  <path class="cls-1" d="M6.85,8.85L13.85,1.85c.2-.2.2-.51,0-.71-.2-.2-.51-.2-.71,0h0l-6.65,6.65-2.65-2.65c-.2-.2-.51-.2-.71,0s-.2.51,0,.71l3,3c.2.2.51.2.71,0,0,0,0,0,0,0"/>
</svg>