<?xml version="1.0" encoding="UTF-8"?>
<svg id="Capa_1" data-name="Capa 1" xmlns="http://www.w3.org/2000/svg" viewBox="0 0 16 16">
  <defs>
    <style>
      .cls-1 {
        fill: #f51f9c;
        stroke-width: 0px;
      }
    </style>
  </defs>
  <path class="cls-1" d="M3.5,0C3.78,0,4,.22,4,.5v.5h8v-.5C12,.22,12.22,0,12.5,0s.5.22.5.5v.5h1c1.1,0,2,.9,2,2v11c0,1.1-.9,2-2,2H2c-1.1,0-2-.9-2-2V3C0,1.9.9,1,2,1h1v-.5C3,.22,3.22,0,3.5,0M2,2c-.55,0-1,.45-1,1v11c0,.55.45,1,1,1h12c.55,0,1-.45,1-1V3c0-.55-.45-1-1-1H2Z"/>
  <path class="cls-1" d="M2.5,4c0-.28.22-.5.5-.5h10c.28,0,.5.22.5.5v1c0,.28-.22.5-.5.5H3c-.28,0-.5-.22-.5-.5v-1ZM11,7.5c0-.28.22-.5.5-.5h1c.28,0,.5.22.5.5v1c0,.28-.22.5-.5.5h-1c-.28,0-.5-.22-.5-.5v-1ZM8,7.5c0-.28.22-.5.5-.5h1c.28,0,.5.22.5.5v1c0,.28-.22.5-.5.5h-1c-.28,0-.5-.22-.5-.5v-1ZM3,10.5c0-.28.22-.5.5-.5h1c.28,0,.5.22.5.5v1c0,.28-.22.5-.5.5h-1c-.28,0-.5-.22-.5-.5v-1ZM6,10.5c0-.28.22-.5.5-.5h1c.28,0,.5.22.5.5v1c0,.28-.22.5-.5.5h-1c-.28,0-.5-.22-.5-.5v-1Z"/>
</svg>