<?xml version="1.0" encoding="UTF-8"?>
<svg id="Capa_1" data-name="Capa 1" xmlns="http://www.w3.org/2000/svg" viewBox="0 0 16 16">
  <defs>
    <style>
      .cls-1 {
        fill: #f51f9c;
        fill-rule: evenodd;
        stroke-width: 0px;
      }
    </style>
  </defs>
  <path class="cls-1" d="M2.96,12.69c.03-.3-.08-.59-.29-.8-1.06-1.06-1.68-2.43-1.68-3.89,0-3.19,3-6,7-6s7,2.81,7,6-3,6-7,6c-.7,0-1.41-.09-2.09-.27-.24-.06-.49-.04-.71.07-.39.2-1.24.57-2.63.89.19-.65.33-1.32.4-2M2.16,15.8h.02c1.83-.37,2.95-.85,3.47-1.11.77.2,1.55.31,2.35.31,4.42,0,8-3.13,8-7S12.42,1,8,1,0,4.13,0,8c0,1.76.74,3.37,1.97,4.6-.09.79-.26,1.57-.52,2.32h0c-.07.23-.16.44-.24.65-.08.19.07.39.27.36.23-.04.46-.08.69-.12M8,5.99c1.66-1.71,5.82,1.28,0,5.13-5.82-3.85-1.66-6.84,0-5.13"/>
</svg>