<?xml version="1.0" encoding="UTF-8"?>
<svg id="Capa_1" data-name="Capa 1" xmlns="http://www.w3.org/2000/svg" viewBox="0 0 16 16">
  <defs>
    <style>
      .cls-1 {
        fill: #f51f9c;
        stroke-width: 0px;
      }
    </style>
  </defs>
  <path class="cls-1" d="M12.17,8.94c-.52,1.06-1.23,2.12-1.96,3.07-.69.9-1.43,1.75-2.21,2.57-.78-.82-1.52-1.67-2.21-2.57-.73-.95-1.44-2.01-1.96-3.07-.53-1.07-.83-2.08-.83-2.94,0-2.76,2.24-5,5-5s5,2.24,5,5c0,.86-.31,1.87-.83,2.94M8,16s6-5.69,6-10C14,2.69,11.31,0,8,0S2,2.69,2,6c0,4.31,6,10,6,10"/>
  <path class="cls-1" d="M8,8c-1.1,0-2-.9-2-2s.9-2,2-2,2,.9,2,2-.9,2-2,2M8,9c1.66,0,3-1.34,3-3s-1.34-3-3-3-3,1.34-3,3,1.34,3,3,3"/>
</svg>